<?xml version="1.0" encoding="UTF-8" standalone="no"?>
<svg
   version="1.2"
   width="297mm"
   viewBox="0 0 2970 2100"
   height="210mm"
   id="svg17765"
   sodipodi:docname="VISTAS PARA RECORTE.svg"
   inkscape:export-filename="VISTAS PARA RECORTE.pdf"
   inkscape:export-xdpi="96"
   inkscape:export-ydpi="96"
   inkscape:version="1.2.2 (732a01da63, 2022-12-09)"
   xmlns:inkscape="http://www.inkscape.org/namespaces/inkscape"
   xmlns:sodipodi="http://sodipodi.sourceforge.net/DTD/sodipodi-0.dtd"
   xmlns="http://www.w3.org/2000/svg"
   xmlns:svg="http://www.w3.org/2000/svg"
   xmlns:freecad="http://www.freecad.org/wiki/index.php?title=Svg_Namespace">
  <title
     id="title17575">FreeCAD SVG Export</title>
  <desc
     id="desc17577">Drawing page: Page002 exported from FreeCAD document: Unnamed</desc>
  <defs
     id="defs17579" />
  <g
     inkscape:groupmode="layer"
     inkscape:label="TechDraw"
     id="Page002">
    <g
       transform="scale(10.000000, 10.000000)"
       style="stroke: none;"
       id="prancha A31.svg">
      <sodipodi:namedview
         inkscape:showpageshadow="2"
         inkscape:cy="468.98309"
         bordercolor="#000000"
         borderopacity="0.25"
         inkscape:pagecheckerboard="0"
         showgrid="false"
         inkscape:window-y="-8"
         inkscape:cx="414.70264"
         inkscape:window-x="-8"
         inkscape:window-height="697"
         id="namedview7"
         inkscape:window-width="1366"
         inkscape:pageopacity="0.0"
         inkscape:zoom="0.46057098"
         pagecolor="#ffffff"
         inkscape:window-maximized="1"
         inkscape:document-units="mm"
         inkscape:deskcolor="#d1d1d1"
         showborder="true"
         inkscape:current-layer="layer1" />
      <defs
         id="defs2" />
      <g
         inkscape:groupmode="layer"
         inkscape:label="Camada 1"
         id="layer1">
        <text
           y="187.22014"
           x="148.64615"
           xml:space="preserve"
           style="font-style:normal;font-variant:normal;font-weight:normal;font-stretch:normal;font-size:4.23333px;font-family:Arial;-inkscape-font-specification:Arial;fill:#010101;fill-opacity:1;stroke:#000000;stroke-width:0.499999;stroke-dasharray:none;stroke-opacity:1"
           id="text7387">
     <tspan
   y="187.22014"
   x="148.64615"
   style="stroke:none;stroke-width:0.5"
   sodipodi:role="line"
   id="tspan7385">PROJETO:</tspan>
    </text>
        <text
           y="187.37172"
           x="229.51851"
           xml:space="preserve"
           style="font-style:normal;font-variant:normal;font-weight:normal;font-stretch:normal;font-size:4.23333px;font-family:Arial;-inkscape-font-specification:Arial;fill:#010101;fill-opacity:1;stroke:#000000;stroke-width:0.499999;stroke-dasharray:none;stroke-opacity:1"
           id="text7387-1">
     <tspan
   y="187.37172"
   x="229.51851"
   style="stroke:none;stroke-width:0.5"
   sodipodi:role="line"
   id="tspan7385-4">ESCALA:</tspan>
    </text>
        <text
           y="196.15161"
           x="230.73994"
           freecad:editable="1:1"
           xml:space="preserve"
           style="font-style:normal;font-variant:normal;font-weight:normal;font-stretch:normal;font-size:5.64444px;font-family:Arial;-inkscape-font-specification:Arial;fill:#010101;fill-opacity:1;stroke:#000000;stroke-width:0.499999;stroke-dasharray:none;stroke-opacity:1"
           id="text7387-1-2">
     <tspan
   y="196.15161"
   x="230.73994"
   style="font-size:5.64444px;stroke:none;stroke-width:0.5"
   xml:space="preserve"
   sodipodi:role="line"
   id="tspan7385-4-2">1:1</tspan>
    </text>
        <text
           y="187.26666"
           x="259.74496"
           xml:space="preserve"
           style="font-style:normal;font-variant:normal;font-weight:normal;font-stretch:normal;font-size:4.23333px;font-family:Arial;-inkscape-font-specification:Arial;fill:#010101;fill-opacity:1;stroke:#000000;stroke-width:0.499999;stroke-dasharray:none;stroke-opacity:1"
           id="text7387-1-2-0">
     <tspan
   y="187.26666"
   x="259.74496"
   style="stroke:none;stroke-width:0.5"
   sodipodi:role="line"
   id="tspan7385-4-2-2">FOLHA:</tspan>
    </text>
        <text
           y="197.81731"
           x="264.88513"
           freecad:editable="1/1"
           xml:space="preserve"
           style="font-style:normal;font-variant:normal;font-weight:normal;font-stretch:normal;font-size:8.46667px;font-family:Arial;-inkscape-font-specification:Arial;fill:#010101;fill-opacity:1;stroke:#000000;stroke-width:0.499999;stroke-dasharray:none;stroke-opacity:1"
           id="text7387-1-2-0-6">
     <tspan
   y="197.81731"
   x="264.88513"
   style="font-size:8.46667px;stroke:none;stroke-width:0.5"
   xml:space="preserve"
   sodipodi:role="line"
   id="tspan7385-4-2-2-7">1/2</tspan>
    </text>
        <text
           y="197.78764"
           x="148.64615"
           xml:space="preserve"
           style="font-style:normal;font-variant:normal;font-weight:normal;font-stretch:normal;font-size:4.23333px;font-family:Arial;-inkscape-font-specification:Arial;fill:#010101;fill-opacity:1;stroke:#000000;stroke-width:0.499999;stroke-dasharray:none;stroke-opacity:1"
           id="text7387-5">
     <tspan
   y="197.78764"
   x="148.64615"
   style="stroke:none;stroke-width:0.5"
   sodipodi:role="line"
   id="tspan7385-3">AUTOR:</tspan>
    </text>
        <text
           y="191.41418"
           x="175.72299"
           freecad:editable="NOME DO PROETO"
           xml:space="preserve"
           style="font-style:normal;font-variant:normal;font-weight:normal;font-stretch:normal;font-size:4.23333px;font-family:Arial;-inkscape-font-specification:Arial;fill:#010101;fill-opacity:1;stroke:#000000;stroke-width:0.499999;stroke-dasharray:none;stroke-opacity:1"
           id="text7387-2">
     <tspan
   y="191.41418"
   x="175.72299"
   style="stroke:none;stroke-width:0.5"
   xml:space="preserve"
   sodipodi:role="line"
   id="tspan7385-7">CACHORRINHO DORA</tspan>
    </text>
        <text
           y="197.27364"
           x="167.8644"
           freecad:editable="AUTOR"
           xml:space="preserve"
           style="font-style:normal;font-variant:normal;font-weight:normal;font-stretch:normal;font-size:3.52778px;font-family:Arial;-inkscape-font-specification:Arial;fill:#010101;fill-opacity:1;stroke:#000000;stroke-width:0.499999;stroke-dasharray:none;stroke-opacity:1"
           id="text7387-2-6">
     <tspan
   y="197.27364"
   x="167.8644"
   style="font-size:3.52778px;stroke:none;stroke-width:0.5"
   xml:space="preserve"
   sodipodi:role="line"
   id="tspan7385-7-8">ODILAR COSTA</tspan>
    </text>
        <text
           y="202.89494"
           x="148.97894"
           xml:space="preserve"
           style="font-style:normal;font-variant:normal;font-weight:normal;font-stretch:normal;font-size:4.23333px;font-family:Arial;-inkscape-font-specification:Arial;fill:#010101;fill-opacity:1;stroke:#000000;stroke-width:0.499999;stroke-dasharray:none;stroke-opacity:1"
           id="text7387-5-6">
     <tspan
   y="202.89494"
   x="148.97894"
   style="stroke:none;stroke-width:0.5"
   sodipodi:role="line"
   id="tspan7385-3-8">DESENHO:</tspan>
    </text>
        <text
           y="203.12448"
           x="172.36084"
           freecad:editable="DESENHO"
           xml:space="preserve"
           style="font-style:normal;font-variant:normal;font-weight:normal;font-stretch:normal;font-size:3.52778px;font-family:Arial;-inkscape-font-specification:Arial;fill:#010101;fill-opacity:1;stroke:#000000;stroke-width:0.499999;stroke-dasharray:none;stroke-opacity:1"
           id="text7387-2-6-6">
     <tspan
   y="203.12448"
   x="172.36084"
   style="font-size:3.52778px;stroke:none;stroke-width:0.5"
   xml:space="preserve"
   sodipodi:role="line"
   id="tspan7385-7-8-1">MAYKOW MENEZES</tspan>
    </text>
        <rect
           y="5.3591037"
           width="286.28177"
           rx="0"
           x="5.3591037"
           style="fill:none;stroke:#000000;stroke-width:0.5;stroke-dasharray:none;stroke-opacity:1"
           ry="0"
           id="rect234"
           height="199.2818" />
        <rect
           y="183.23143"
           width="143.21158"
           x="148.42931"
           style="fill:none;stroke:#000000;stroke-width:0.5;stroke-dasharray:none;stroke-opacity:1"
           id="rect3133"
           height="21.409468" />
        <path
           style="fill:none;stroke:#000000;stroke-width:0.373963;stroke-dasharray:none;stroke-opacity:1"
           d="m 148.4293,193.93616 h 80.11178"
           id="path3189" />
        <path
           style="fill:none;stroke:#000000;stroke-width:0.373963;stroke-dasharray:none;stroke-opacity:1"
           d="m 148.4293,198.60676 h 80.11178"
           id="path3189-0" />
        <path
           style="fill:#010101;fill-opacity:1;stroke:#000000;stroke-width:0.507936;stroke-dasharray:none;stroke-opacity:1"
           d="M 228.54108,183.23142 V 204.6409"
           id="path3459" />
        <path
           style="fill:#010101;fill-opacity:1;stroke:#000000;stroke-width:0.507936;stroke-dasharray:none;stroke-opacity:1"
           d="m 258.95905,183.04444 v 21.40948"
           id="path3459-8" />
      </g>
    </g>
    <g
       fill="none"
       stroke-width="1"
       fill-rule="evenodd"
       stroke="black"
       stroke-linejoin="bevel"
       id="DrawingContent"
       stroke-linecap="square">
      <g
         transform="matrix(10.0024,0,0,-10.0303,2796.4,2260.68)"
         font-weight="400"
         fill="#cccccc"
         fill-opacity="1"
         font-size="29.1042"
         font-style="normal"
         stroke="none"
         font-family="MS Shell Dlg 2"
         id="g17613">
        <path
           vector-effect="none"
           fill-rule="evenodd"
           d="M-188.129,204.691 C-213.667,212.381 -222.419,215.54 -228.081,213.278 C-233.743,211.016 -236.316,203.333 -237.64,194.893 C-238.965,186.454 -239.043,177.258 -238.613,170.033 C-238.183,162.809 -237.247,157.556 -233.316,153.754 C-229.385,149.951 -222.459,147.599 -213.398,145.882 C-204.338,144.165 -193.142,143.082 -185.907,139.834 C-178.672,136.587 -175.396,131.174 -174.105,124.034 C-172.815,116.893 -173.509,108.025 -172.547,99.8644 C-171.586,91.7042 -168.968,84.2525 -166.346,77.3816 C-163.724,70.5107 -161.096,64.2205 -157.289,60.6089 C-153.482,56.9974 -148.495,56.0644 -142.623,57.3895 C-136.751,58.7145 -129.993,62.2976 -120.97,65.2152 C-111.947,68.1328 -100.66,70.3849 -89.9051,70.72 C-79.1506,71.055 -68.9292,69.473 -60.3891,67.2757 C-51.849,65.0785 -44.9901,62.2659 -38.4538,60.9669 C-31.9174,59.6678 -25.7036,59.8822 -21.2508,63.027 C-16.798,66.1717 -14.1062,72.2467 -11.5181,79.0176 C-8.92992,85.7885 -6.44543,93.2554 -6.07151,100.518 C-5.69759,107.78 -7.43425,114.839 -8.17116,121.855 C-8.90807,128.872 -8.64524,135.847 -6.67469,144.263 C-4.70413,152.68 -1.02585,162.538 0.652769,168.565 C2.33139,174.591 2.01035,176.785 0.143081,177.058 C-1.72419,177.33 -5.13769,175.682 -12.3859,171.449 C-19.6341,167.217 -30.7171,160.401 -41.0799,156.189 C-51.4428,151.978 -61.0855,150.37 -70.4791,150.086 C-79.8727,149.801 -89.0172,150.839 -95.0913,152.733 C-101.165,154.626 -104.169,157.375 -106.66,161.808 C-109.152,166.24 -111.13,172.357 -113.491,177.76 C-115.853,183.163 -118.596,187.854 -122.217,191.695 C-125.838,195.536 -130.337,198.528 -140.7,199.823 C-151.062,201.118 -167.29,200.717 -188.129,204.691 C-213.667,212.381 -222.419,215.54 -228.081,213.278 C-233.743,211.016 -236.316,203.333 -237.64,194.893 C-238.965,186.454 -239.043,177.258 -238.613,170.033 C-238.183,162.809 -237.247,157.556 -233.316,153.754 C-229.385,149.951 -222.459,147.599 -213.398,145.882 C-204.338,144.165 -193.142,143.082 -185.907,139.834 C-178.672,136.587 -175.396,131.174 -174.105,124.034 C-172.815,116.893 -173.509,108.025 -172.547,99.8644 C-171.586,91.7042 -168.968,84.2525 -166.346,77.3816 C-163.724,70.5107 -161.096,64.2205 -157.289,60.6089 C-153.482,56.9974 -148.495,56.0644 -142.623,57.3895 C-136.751,58.7145 -129.993,62.2976 -120.97,65.2152 C-111.947,68.1328 -100.66,70.3849 -89.9051,70.72 C-79.1506,71.055 -68.9292,69.473 -60.3891,67.2757 C-51.849,65.0785 -44.9901,62.2659 -38.4538,60.9669 C-31.9174,59.6678 -25.7036,59.8822 -21.2508,63.027 C-16.798,66.1717 -14.1062,72.2467 -11.5181,79.0176 C-8.92992,85.7885 -6.44543,93.2554 -6.07151,100.518 C-5.69759,107.78 -7.43425,114.839 -8.17116,121.855 C-8.90807,128.872 -8.64524,135.847 -6.67469,144.263 C-4.70413,152.68 -1.02585,162.538 0.652769,168.565 C2.33139,174.591 2.01035,176.785 0.143081,177.058 C-1.72419,177.33 -5.13769,175.682 -12.3859,171.449 C-19.6341,167.217 -30.7171,160.401 -41.0799,156.189 C-51.4428,151.978 -61.0855,150.37 -70.4791,150.086 C-79.8727,149.801 -89.0172,150.839 -95.0913,152.733 C-101.165,154.626 -104.169,157.375 -106.66,161.808 C-109.152,166.24 -111.13,172.357 -113.491,177.76 C-115.853,183.163 -118.596,187.854 -122.217,191.695 C-125.838,195.536 -130.337,198.528 -140.7,199.823 C-151.062,201.118 -167.29,200.717 -188.129,204.691 "
           id="path17611" />
      </g>
      <g
         transform="matrix(10.0024,0,0,-10.0303,2796.4,2260.68)"
         font-weight="400"
         stroke-opacity="1"
         fill="none"
         stroke-width="0.35"
         font-size="29.1042"
         font-style="normal"
         stroke="#000000"
         stroke-linejoin="miter"
         stroke-miterlimit="4"
         font-family="MS Shell Dlg 2"
         stroke-linecap="square"
         id="g17617">
        <path
           vector-effect="none"
           fill-rule="evenodd"
           d="M-188.129,204.691 C-213.667,212.381 -222.419,215.54 -228.081,213.278 C-233.743,211.016 -236.316,203.333 -237.64,194.893 C-238.965,186.454 -239.043,177.258 -238.613,170.033 C-238.183,162.809 -237.247,157.556 -233.316,153.754 C-229.385,149.951 -222.459,147.599 -213.398,145.882 C-204.338,144.165 -193.142,143.082 -185.907,139.834 C-178.672,136.587 -175.396,131.174 -174.105,124.034 C-172.815,116.893 -173.509,108.025 -172.547,99.8644 C-171.586,91.7042 -168.968,84.2525 -166.346,77.3816 C-163.724,70.5107 -161.096,64.2205 -157.289,60.6089 C-153.482,56.9974 -148.495,56.0644 -142.623,57.3895 C-136.751,58.7145 -129.993,62.2976 -120.97,65.2152 C-111.947,68.1328 -100.66,70.3849 -89.9051,70.72 C-79.1506,71.055 -68.9292,69.473 -60.3891,67.2757 C-51.849,65.0785 -44.9901,62.2659 -38.4538,60.9669 C-31.9174,59.6678 -25.7036,59.8822 -21.2508,63.027 C-16.798,66.1717 -14.1062,72.2467 -11.5181,79.0176 C-8.92992,85.7885 -6.44543,93.2554 -6.07151,100.518 C-5.69759,107.78 -7.43425,114.839 -8.17116,121.855 C-8.90807,128.872 -8.64524,135.847 -6.67469,144.263 C-4.70413,152.68 -1.02585,162.538 0.652769,168.565 C2.33139,174.591 2.01035,176.785 0.143081,177.058 C-1.72419,177.33 -5.13769,175.682 -12.3859,171.449 C-19.6341,167.217 -30.7171,160.401 -41.0799,156.189 C-51.4428,151.978 -61.0855,150.37 -70.4791,150.086 C-79.8727,149.801 -89.0172,150.839 -95.0913,152.733 C-101.165,154.626 -104.169,157.375 -106.66,161.808 C-109.152,166.24 -111.13,172.357 -113.491,177.76 C-115.853,183.163 -118.596,187.854 -122.217,191.695 C-125.838,195.536 -130.337,198.528 -140.7,199.823 C-151.062,201.118 -167.29,200.717 -188.129,204.691 C-213.667,212.381 -222.419,215.54 -228.081,213.278 C-233.743,211.016 -236.316,203.333 -237.64,194.893 C-238.965,186.454 -239.043,177.258 -238.613,170.033 C-238.183,162.809 -237.247,157.556 -233.316,153.754 C-229.385,149.951 -222.459,147.599 -213.398,145.882 C-204.338,144.165 -193.142,143.082 -185.907,139.834 C-178.672,136.587 -175.396,131.174 -174.105,124.034 C-172.815,116.893 -173.509,108.025 -172.547,99.8644 C-171.586,91.7042 -168.968,84.2525 -166.346,77.3816 C-163.724,70.5107 -161.096,64.2205 -157.289,60.6089 C-153.482,56.9974 -148.495,56.0644 -142.623,57.3895 C-136.751,58.7145 -129.993,62.2976 -120.97,65.2152 C-111.947,68.1328 -100.66,70.3849 -89.9051,70.72 C-79.1506,71.055 -68.9292,69.473 -60.3891,67.2757 C-51.849,65.0785 -44.9901,62.2659 -38.4538,60.9669 C-31.9174,59.6678 -25.7036,59.8822 -21.2508,63.027 C-16.798,66.1717 -14.1062,72.2467 -11.5181,79.0176 C-8.92992,85.7885 -6.44543,93.2554 -6.07151,100.518 C-5.69759,107.78 -7.43425,114.839 -8.17116,121.855 C-8.90807,128.872 -8.64524,135.847 -6.67469,144.263 C-4.70413,152.68 -1.02585,162.538 0.652769,168.565 C2.33139,174.591 2.01035,176.785 0.143081,177.058 C-1.72419,177.33 -5.13769,175.682 -12.3859,171.449 C-19.6341,167.217 -30.7171,160.401 -41.0799,156.189 C-51.4428,151.978 -61.0855,150.37 -70.4791,150.086 C-79.8727,149.801 -89.0172,150.839 -95.0913,152.733 C-101.165,154.626 -104.169,157.375 -106.66,161.808 C-109.152,166.24 -111.13,172.357 -113.491,177.76 C-115.853,183.163 -118.596,187.854 -122.217,191.695 C-125.838,195.536 -130.337,198.528 -140.7,199.823 C-151.062,201.118 -167.29,200.717 -188.129,204.691 "
           id="path17615" />
      </g>
      <g
         transform="matrix(10.0024,0,0,-10.0303,2796.4,2260.68)"
         font-weight="400"
         fill="#cccccc"
         fill-opacity="1"
         font-size="29.1042"
         font-style="normal"
         stroke="none"
         font-family="MS Shell Dlg 2"
         id="g17621">
        <circle
           cx="-135.334"
           cy="181.62"
           r="5"
           id="circle17619" />
      </g>
      <g
         transform="matrix(10.0024,0,0,-10.0303,2796.4,2260.68)"
         font-weight="400"
         stroke-opacity="1"
         fill="none"
         stroke-width="0.35"
         font-size="29.1042"
         font-style="normal"
         stroke="#000000"
         stroke-linejoin="miter"
         stroke-miterlimit="4"
         font-family="MS Shell Dlg 2"
         stroke-linecap="square"
         id="g17625">
        <circle
           cx="-135.334"
           cy="181.62"
           r="5"
           id="circle17623" />
      </g>
      <g
         transform="matrix(10.0024,0,0,-10.0303,2796.4,2260.68)"
         font-weight="400"
         fill="#cccccc"
         fill-opacity="1"
         font-size="29.1042"
         font-style="normal"
         stroke="none"
         font-family="MS Shell Dlg 2"
         id="g17629">
        <circle
           cx="-28.507"
           cy="68.9305"
           r="5"
           id="circle17627" />
      </g>
      <g
         transform="matrix(10.0024,0,0,-10.0303,2796.4,2260.68)"
         font-weight="400"
         stroke-opacity="1"
         fill="none"
         stroke-width="0.35"
         font-size="29.1042"
         font-style="normal"
         stroke="#000000"
         stroke-linejoin="miter"
         stroke-miterlimit="4"
         font-family="MS Shell Dlg 2"
         stroke-linecap="square"
         id="g17633">
        <circle
           cx="-28.507"
           cy="68.9305"
           r="5"
           id="circle17631" />
      </g>
      <g
         transform="matrix(10.0024,0,0,-10.0303,2796.4,2260.68)"
         font-weight="400"
         fill="#cccccc"
         fill-opacity="1"
         font-size="29.1042"
         font-style="normal"
         stroke="none"
         font-family="MS Shell Dlg 2"
         id="g17637">
        <circle
           cx="-148.507"
           cy="68.9305"
           r="5"
           id="circle17635" />
      </g>
      <g
         transform="matrix(10.0024,0,0,-10.0303,2796.4,2260.68)"
         font-weight="400"
         stroke-opacity="1"
         fill="none"
         stroke-width="0.35"
         font-size="29.1042"
         font-style="normal"
         stroke="#000000"
         stroke-linejoin="miter"
         stroke-miterlimit="4"
         font-family="MS Shell Dlg 2"
         stroke-linecap="square"
         id="g17641">
        <circle
           cx="-148.507"
           cy="68.9305"
           r="5"
           id="circle17639" />
      </g>
      <g
         transform="matrix(10.0024,0,0,-10.0303,2796.4,2260.68)"
         font-weight="400"
         fill="#cccccc"
         fill-opacity="1"
         font-size="29.1042"
         font-style="normal"
         stroke="none"
         font-family="MS Shell Dlg 2"
         id="g17645">
        <circle
           cx="-135.334"
           cy="181.62"
           r="5"
           id="circle17643" />
      </g>
      <g
         transform="matrix(10.0024,0,0,-10.0303,2796.4,2260.68)"
         font-weight="400"
         stroke-opacity="1"
         fill="none"
         stroke-width="0.35"
         font-size="29.1042"
         font-style="normal"
         stroke="#000000"
         stroke-linejoin="miter"
         stroke-miterlimit="4"
         font-family="MS Shell Dlg 2"
         stroke-linecap="square"
         id="g17649">
        <circle
           cx="-135.334"
           cy="181.62"
           r="5"
           id="circle17647" />
      </g>
      <g
         transform="matrix(10.107,0.240112,0.240112,-10.107,3675.57,1123.76)"
         font-weight="400"
         fill="none"
         font-size="29.1042"
         font-style="normal"
         stroke="none"
         font-family="MS Shell Dlg 2"
         id="g17653">
        <circle
           cx="-148.425"
           cy="69.1241"
           r="22.5"
           id="circle17651" />
      </g>
      <g
         transform="matrix(10.107,0.240112,0.240112,-10.107,3675.57,1123.76)"
         font-weight="400"
         stroke-opacity="1"
         fill="none"
         stroke-width="0.25"
         font-size="29.1042"
         font-style="normal"
         stroke="#000000"
         stroke-linejoin="miter"
         stroke-miterlimit="4"
         font-family="MS Shell Dlg 2"
         stroke-linecap="butt"
         id="g17657">
        <circle
           cx="-148.425"
           cy="69.1241"
           r="22.5"
           id="circle17655" />
      </g>
      <g
         transform="matrix(10.107,0.240112,0.240112,-10.107,3675.57,1123.76)"
         font-weight="400"
         fill="none"
         font-size="29.1042"
         font-style="normal"
         stroke="none"
         font-family="MS Shell Dlg 2"
         id="g17661">
        <circle
           cx="-148.425"
           cy="69.1241"
           r="5"
           id="circle17659" />
      </g>
      <g
         transform="matrix(10.107,0.240112,0.240112,-10.107,3675.57,1123.76)"
         font-weight="400"
         stroke-opacity="1"
         fill="none"
         stroke-width="0.25"
         font-size="29.1042"
         font-style="normal"
         stroke="#000000"
         stroke-linejoin="miter"
         stroke-miterlimit="4"
         font-family="MS Shell Dlg 2"
         stroke-linecap="butt"
         id="g17665">
        <circle
           cx="-148.425"
           cy="69.1241"
           r="5"
           id="circle17663" />
      </g>
      <g
         transform="matrix(10.107,0.240112,0.240112,-10.107,3675.57,1123.76)"
         font-weight="400"
         fill="none"
         font-size="29.1042"
         font-style="normal"
         stroke="none"
         font-family="MS Shell Dlg 2"
         id="g17669">
        <circle
           cx="-148.425"
           cy="69.1241"
           r="22.5"
           id="circle17667" />
      </g>
      <g
         transform="matrix(10.107,0.240112,0.240112,-10.107,3675.57,1123.76)"
         font-weight="400"
         stroke-opacity="1"
         fill="none"
         stroke-width="0.5"
         font-size="29.1042"
         font-style="normal"
         stroke="#000000"
         stroke-linejoin="miter"
         stroke-miterlimit="4"
         font-family="MS Shell Dlg 2"
         stroke-linecap="butt"
         id="g17673">
        <circle
           cx="-148.425"
           cy="69.1241"
           r="22.5"
           id="circle17671" />
      </g>
      <g
         transform="matrix(10.107,0.240112,0.240112,-10.107,3675.57,1123.76)"
         font-weight="400"
         fill="none"
         font-size="29.1042"
         font-style="normal"
         stroke="none"
         font-family="MS Shell Dlg 2"
         id="g17677">
        <circle
           cx="-148.425"
           cy="69.1241"
           r="5"
           id="circle17675" />
      </g>
      <g
         transform="matrix(10.107,0.240112,0.240112,-10.107,3675.57,1123.76)"
         font-weight="400"
         stroke-opacity="1"
         fill="none"
         stroke-width="0.5"
         font-size="29.1042"
         font-style="normal"
         stroke="#000000"
         stroke-linejoin="miter"
         stroke-miterlimit="4"
         font-family="MS Shell Dlg 2"
         stroke-linecap="butt"
         id="g17681">
        <circle
           cx="-148.425"
           cy="69.1241"
           r="5"
           id="circle17679" />
      </g>
      <g
         transform="matrix(10.0123,0,0,-9.96698,1737.06,3511.81)"
         font-weight="400"
         fill="none"
         font-size="29.1042"
         font-style="normal"
         stroke="none"
         font-family="MS Shell Dlg 2"
         id="g17685">
        <path
           vector-effect="none"
           fill-rule="nonzero"
           d="M-97.7652,250.818 C-89.9506,248.082 -82.7379,244.089 -79.8119,238.149 C-76.9737,232.388 -78.1694,224.795 -83.5612,217.532 C-86.6287,213.399 -91.0544,209.374 -95.5761,205.497 C-99.0023,202.559 -102.484,199.707 -105.471,196.958 C-106.425,196.079 -107.332,195.211 -108.193,194.353 "
           id="path17683" />
      </g>
      <g
         transform="matrix(10.0123,0,0,-9.96698,1737.06,3511.81)"
         font-weight="400"
         stroke-opacity="1"
         fill="none"
         stroke-width="0.25"
         font-size="29.1042"
         font-style="normal"
         stroke="#000000"
         stroke-linejoin="miter"
         stroke-miterlimit="4"
         font-family="MS Shell Dlg 2"
         stroke-linecap="butt"
         id="g17689">
        <path
           vector-effect="none"
           fill-rule="nonzero"
           d="M-97.7652,250.818 C-89.9506,248.082 -82.7379,244.089 -79.8119,238.149 C-76.9737,232.388 -78.1694,224.795 -83.5612,217.532 C-86.6287,213.399 -91.0544,209.374 -95.5761,205.497 C-99.0023,202.559 -102.484,199.707 -105.471,196.958 C-106.425,196.079 -107.332,195.211 -108.193,194.353 "
           id="path17687" />
      </g>
      <g
         transform="matrix(10.0123,0,0,-9.96698,1737.06,3511.81)"
         font-weight="400"
         fill="none"
         font-size="29.1042"
         font-style="normal"
         stroke="none"
         font-family="MS Shell Dlg 2"
         id="g17693">
        <path
           vector-effect="none"
           fill-rule="nonzero"
           d="M-129.243,172.034 C-130.425,171.241 -131.611,170.624 -132.797,170.243 "
           id="path17691" />
      </g>
      <g
         transform="matrix(10.0123,0,0,-9.96698,1737.06,3511.81)"
         font-weight="400"
         stroke-opacity="1"
         fill="none"
         stroke-width="0.25"
         font-size="29.1042"
         font-style="normal"
         stroke="#000000"
         stroke-linejoin="miter"
         stroke-miterlimit="4"
         font-family="MS Shell Dlg 2"
         stroke-linecap="butt"
         id="g17697">
        <path
           vector-effect="none"
           fill-rule="nonzero"
           d="M-129.243,172.034 C-130.425,171.241 -131.611,170.624 -132.797,170.243 "
           id="path17695" />
      </g>
      <g
         transform="matrix(10.0123,0,0,-9.96698,1737.06,3511.81)"
         font-weight="400"
         fill="none"
         font-size="29.1042"
         font-style="normal"
         stroke="none"
         font-family="MS Shell Dlg 2"
         id="g17701">
        <path
           vector-effect="none"
           fill-rule="nonzero"
           d="M-133.86,169.966 L-133.894,169.959"
           id="path17699" />
      </g>
      <g
         transform="matrix(10.0123,0,0,-9.96698,1737.06,3511.81)"
         font-weight="400"
         stroke-opacity="1"
         fill="none"
         stroke-width="0.25"
         font-size="29.1042"
         font-style="normal"
         stroke="#000000"
         stroke-linejoin="miter"
         stroke-miterlimit="4"
         font-family="MS Shell Dlg 2"
         stroke-linecap="butt"
         id="g17705">
        <path
           vector-effect="none"
           fill-rule="nonzero"
           d="M-133.86,169.966 L-133.894,169.959"
           id="path17703" />
      </g>
      <g
         transform="matrix(10.0123,0,0,-9.96698,1737.06,3511.81)"
         font-weight="400"
         fill="none"
         font-size="29.1042"
         font-style="normal"
         stroke="none"
         font-family="MS Shell Dlg 2"
         id="g17709">
        <path
           vector-effect="none"
           fill-rule="nonzero"
           d="M-136.647,169.908 L-136.666,169.911"
           id="path17707" />
      </g>
      <g
         transform="matrix(10.0123,0,0,-9.96698,1737.06,3511.81)"
         font-weight="400"
         stroke-opacity="1"
         fill="none"
         stroke-width="0.25"
         font-size="29.1042"
         font-style="normal"
         stroke="#000000"
         stroke-linejoin="miter"
         stroke-miterlimit="4"
         font-family="MS Shell Dlg 2"
         stroke-linecap="butt"
         id="g17713">
        <path
           vector-effect="none"
           fill-rule="nonzero"
           d="M-136.647,169.908 L-136.666,169.911"
           id="path17711" />
      </g>
      <g
         transform="matrix(10.0123,0,0,-9.96698,1737.06,3511.81)"
         font-weight="400"
         fill="none"
         font-size="29.1042"
         font-style="normal"
         stroke="none"
         font-family="MS Shell Dlg 2"
         id="g17717">
        <path
           vector-effect="none"
           fill-rule="nonzero"
           d="M-138.961,170.613 C-139.118,170.684 -139.275,170.759 -139.431,170.838 "
           id="path17715" />
      </g>
      <g
         transform="matrix(10.0123,0,0,-9.96698,1737.06,3511.81)"
         font-weight="400"
         stroke-opacity="1"
         fill="none"
         stroke-width="0.25"
         font-size="29.1042"
         font-style="normal"
         stroke="#000000"
         stroke-linejoin="miter"
         stroke-miterlimit="4"
         font-family="MS Shell Dlg 2"
         stroke-linecap="butt"
         id="g17721">
        <path
           vector-effect="none"
           fill-rule="nonzero"
           d="M-138.961,170.613 C-139.118,170.684 -139.275,170.759 -139.431,170.838 "
           id="path17719" />
      </g>
      <g
         transform="matrix(10.0123,0,0,-9.96698,1737.06,3511.81)"
         font-weight="400"
         fill="none"
         font-size="29.1042"
         font-style="normal"
         stroke="none"
         font-family="MS Shell Dlg 2"
         id="g17725">
        <path
           vector-effect="none"
           fill-rule="nonzero"
           d="M-136.26,235.206 C-137.751,232.459 -139.08,229.626 -140.299,226.749 C-141.516,223.87 -142.621,220.945 -143.63,217.987 C-144.482,215.483 -145.267,212.956 -145.964,210.405 C-146.657,207.867 -147.255,205.301 -147.669,202.703 C-148.065,200.257 -148.281,197.787 -148.468,195.317 C-148.501,194.889 -148.532,194.454 -148.563,194.011 C-148.69,192.163 -148.772,190.31 -148.72,188.458 C-148.677,186.938 -148.545,185.419 -148.275,183.922 C-148.005,182.426 -147.596,180.952 -147.009,179.548 C-146.647,178.681 -146.223,177.845 -145.739,177.04 C-144.57,175.105 -143.079,173.346 -141.266,171.985 C-140.149,171.152 -138.901,170.475 -137.553,170.104 C-136.841,169.909 -136.103,169.803 -135.364,169.809 C-134.563,169.814 -133.765,169.951 -132.998,170.18 C-131.58,170.606 -130.269,171.329 -129.053,172.163 C-127.653,173.128 -126.367,174.248 -125.144,175.426 C-123.533,176.981 -122.031,178.644 -120.567,180.336 C-119.396,181.691 -118.25,183.069 -117.1,184.443 C-115.09,186.849 -113.058,189.241 -110.918,191.534 C-109.275,193.302 -107.569,195.008 -105.802,196.652 C-105.274,197.142 -104.732,197.635 -104.175,198.131 C-102.354,199.753 -100.491,201.326 -98.6302,202.901 C-96.3521,204.829 -94.0729,206.756 -91.8599,208.759 C-89.3522,211.034 -86.9123,213.398 -84.7528,216.011 C-84.0511,216.859 -83.3898,217.737 -82.7689,218.645 C-81.028,221.204 -79.6348,224.028 -78.8883,227.041 C-78.5168,228.544 -78.3115,230.092 -78.3216,231.641 C-78.332,233.865 -78.8067,236.096 -79.7865,238.097 C-80.8104,240.201 -82.3565,242.012 -84.1145,243.539 C-85.8742,245.067 -87.8459,246.333 -89.897,247.431 C-92.1861,248.653 -94.5812,249.668 -97.019,250.552 C-99.3068,251.381 -101.637,252.095 -104.011,252.631 C-106.385,253.164 -108.803,253.518 -111.237,253.579 C-114.072,253.649 -116.944,253.303 -119.616,252.323 C-121.057,251.795 -122.429,251.087 -123.713,250.25 C-124.911,249.469 -126.033,248.577 -127.085,247.611 C-128.988,245.861 -130.661,243.877 -132.171,241.782 C-133.681,239.684 -135.026,237.475 -136.26,235.206 "
           id="path17723" />
      </g>
      <g
         transform="matrix(10.0123,0,0,-9.96698,1737.06,3511.81)"
         font-weight="400"
         stroke-opacity="1"
         fill="none"
         stroke-width="0.25"
         font-size="29.1042"
         font-style="normal"
         stroke="#000000"
         stroke-linejoin="miter"
         stroke-miterlimit="4"
         font-family="MS Shell Dlg 2"
         stroke-linecap="butt"
         id="g17729">
        <path
           vector-effect="none"
           fill-rule="nonzero"
           d="M-136.26,235.206 C-137.751,232.459 -139.08,229.626 -140.299,226.749 C-141.516,223.87 -142.621,220.945 -143.63,217.987 C-144.482,215.483 -145.267,212.956 -145.964,210.405 C-146.657,207.867 -147.255,205.301 -147.669,202.703 C-148.065,200.257 -148.281,197.787 -148.468,195.317 C-148.501,194.889 -148.532,194.454 -148.563,194.011 C-148.69,192.163 -148.772,190.31 -148.72,188.458 C-148.677,186.938 -148.545,185.419 -148.275,183.922 C-148.005,182.426 -147.596,180.952 -147.009,179.548 C-146.647,178.681 -146.223,177.845 -145.739,177.04 C-144.57,175.105 -143.079,173.346 -141.266,171.985 C-140.149,171.152 -138.901,170.475 -137.553,170.104 C-136.841,169.909 -136.103,169.803 -135.364,169.809 C-134.563,169.814 -133.765,169.951 -132.998,170.18 C-131.58,170.606 -130.269,171.329 -129.053,172.163 C-127.653,173.128 -126.367,174.248 -125.144,175.426 C-123.533,176.981 -122.031,178.644 -120.567,180.336 C-119.396,181.691 -118.25,183.069 -117.1,184.443 C-115.09,186.849 -113.058,189.241 -110.918,191.534 C-109.275,193.302 -107.569,195.008 -105.802,196.652 C-105.274,197.142 -104.732,197.635 -104.175,198.131 C-102.354,199.753 -100.491,201.326 -98.6302,202.901 C-96.3521,204.829 -94.0729,206.756 -91.8599,208.759 C-89.3522,211.034 -86.9123,213.398 -84.7528,216.011 C-84.0511,216.859 -83.3898,217.737 -82.7689,218.645 C-81.028,221.204 -79.6348,224.028 -78.8883,227.041 C-78.5168,228.544 -78.3115,230.092 -78.3216,231.641 C-78.332,233.865 -78.8067,236.096 -79.7865,238.097 C-80.8104,240.201 -82.3565,242.012 -84.1145,243.539 C-85.8742,245.067 -87.8459,246.333 -89.897,247.431 C-92.1861,248.653 -94.5812,249.668 -97.019,250.552 C-99.3068,251.381 -101.637,252.095 -104.011,252.631 C-106.385,253.164 -108.803,253.518 -111.237,253.579 C-114.072,253.649 -116.944,253.303 -119.616,252.323 C-121.057,251.795 -122.429,251.087 -123.713,250.25 C-124.911,249.469 -126.033,248.577 -127.085,247.611 C-128.988,245.861 -130.661,243.877 -132.171,241.782 C-133.681,239.684 -135.026,237.475 -136.26,235.206 "
           id="path17727" />
      </g>
      <g
         transform="matrix(10.0123,0,0,-9.96698,1737.06,3511.81)"
         font-weight="400"
         fill="none"
         font-size="29.1042"
         font-style="normal"
         stroke="none"
         font-family="MS Shell Dlg 2"
         id="g17733">
        <circle
           cx="-135.343"
           cy="181.647"
           r="5"
           id="circle17731" />
      </g>
      <g
         transform="matrix(10.0123,0,0,-9.96698,1737.06,3511.81)"
         font-weight="400"
         stroke-opacity="1"
         fill="none"
         stroke-width="0.25"
         font-size="29.1042"
         font-style="normal"
         stroke="#000000"
         stroke-linejoin="miter"
         stroke-miterlimit="4"
         font-family="MS Shell Dlg 2"
         stroke-linecap="butt"
         id="g17737">
        <circle
           cx="-135.343"
           cy="181.647"
           r="5"
           id="circle17735" />
      </g>
      <g
         transform="matrix(10.0123,0,0,-9.96698,1737.06,3511.81)"
         font-weight="400"
         fill="none"
         font-size="29.1042"
         font-style="normal"
         stroke="none"
         font-family="MS Shell Dlg 2"
         id="g17741">
        <path
           vector-effect="none"
           fill-rule="nonzero"
           d="M-136.26,235.206 C-139.248,229.708 -141.75,223.503 -143.63,217.987 C-144.569,215.229 -145.353,212.644 -145.964,210.405 C-146.595,208.092 -147.047,206.126 -147.385,204.335 C-147.711,202.6 -147.93,201.031 -148.1,199.471 C-148.269,197.912 -148.39,196.361 -148.516,194.669 C-148.768,191.24 -148.946,187.366 -148.215,183.601 C-148.042,182.703 -147.813,181.816 -147.526,180.938 C-147.219,180.001 -146.837,179.085 -146.379,178.191 C-145.492,176.464 -144.339,174.853 -143.015,173.514 C-141.691,172.176 -140.196,171.109 -138.626,170.47 C-137.816,170.14 -136.986,169.925 -136.15,169.844 C-135.313,169.762 -134.472,169.824 -133.63,170.014 C-130.368,170.751 -127.087,173.382 -123.908,176.659 C-123.139,177.455 -122.376,178.28 -121.62,179.133 C-120.817,180.041 -120.016,180.968 -119.22,181.915 C-117.621,183.808 -116.004,185.777 -114.241,187.819 C-112.533,189.798 -110.687,191.845 -108.587,193.959 C-107.573,194.982 -106.492,196.02 -105.346,197.073 C-104.12,198.196 -102.814,199.337 -101.464,200.494 C-96.1485,205.048 -90.1562,209.85 -85.7664,214.824 C-84.7214,216.008 -83.7682,217.202 -82.9343,218.405 C-82.0449,219.689 -81.2845,220.975 -80.653,222.263 C-79.4304,224.754 -78.6912,227.229 -78.429,229.602 C-78.1677,231.975 -78.3833,234.247 -79.0695,236.331 C-79.4239,237.407 -79.9053,238.432 -80.5069,239.399 C-81.1087,240.365 -81.8272,241.277 -82.6444,242.137 C-85.8126,245.468 -90.4651,248.021 -95.536,249.995 C-100.692,251.992 -106.239,253.5 -111.487,253.584 C-114.069,253.624 -116.58,253.319 -118.936,252.557 C-121.293,251.796 -123.488,250.557 -125.532,248.938 C-129.687,245.648 -133.224,240.792 -136.26,235.206 "
           id="path17739" />
      </g>
      <g
         transform="matrix(10.0123,0,0,-9.96698,1737.06,3511.81)"
         font-weight="400"
         stroke-opacity="1"
         fill="none"
         stroke-width="0.5"
         font-size="29.1042"
         font-style="normal"
         stroke="#000000"
         stroke-linejoin="miter"
         stroke-miterlimit="4"
         font-family="MS Shell Dlg 2"
         stroke-linecap="butt"
         id="g17745">
        <path
           vector-effect="none"
           fill-rule="nonzero"
           d="M-136.26,235.206 C-139.248,229.708 -141.75,223.503 -143.63,217.987 C-144.569,215.229 -145.353,212.644 -145.964,210.405 C-146.595,208.092 -147.047,206.126 -147.385,204.335 C-147.711,202.6 -147.93,201.031 -148.1,199.471 C-148.269,197.912 -148.39,196.361 -148.516,194.669 C-148.768,191.24 -148.946,187.366 -148.215,183.601 C-148.042,182.703 -147.813,181.816 -147.526,180.938 C-147.219,180.001 -146.837,179.085 -146.379,178.191 C-145.492,176.464 -144.339,174.853 -143.015,173.514 C-141.691,172.176 -140.196,171.109 -138.626,170.47 C-137.816,170.14 -136.986,169.925 -136.15,169.844 C-135.313,169.762 -134.472,169.824 -133.63,170.014 C-130.368,170.751 -127.087,173.382 -123.908,176.659 C-123.139,177.455 -122.376,178.28 -121.62,179.133 C-120.817,180.041 -120.016,180.968 -119.22,181.915 C-117.621,183.808 -116.004,185.777 -114.241,187.819 C-112.533,189.798 -110.687,191.845 -108.587,193.959 C-107.573,194.982 -106.492,196.02 -105.346,197.073 C-104.12,198.196 -102.814,199.337 -101.464,200.494 C-96.1485,205.048 -90.1562,209.85 -85.7664,214.824 C-84.7214,216.008 -83.7682,217.202 -82.9343,218.405 C-82.0449,219.689 -81.2845,220.975 -80.653,222.263 C-79.4304,224.754 -78.6912,227.229 -78.429,229.602 C-78.1677,231.975 -78.3833,234.247 -79.0695,236.331 C-79.4239,237.407 -79.9053,238.432 -80.5069,239.399 C-81.1087,240.365 -81.8272,241.277 -82.6444,242.137 C-85.8126,245.468 -90.4651,248.021 -95.536,249.995 C-100.692,251.992 -106.239,253.5 -111.487,253.584 C-114.069,253.624 -116.58,253.319 -118.936,252.557 C-121.293,251.796 -123.488,250.557 -125.532,248.938 C-129.687,245.648 -133.224,240.792 -136.26,235.206 "
           id="path17743" />
      </g>
      <g
         transform="matrix(10.0123,0,0,-9.96698,1737.06,3511.81)"
         font-weight="400"
         fill="none"
         font-size="29.1042"
         font-style="normal"
         stroke="none"
         font-family="MS Shell Dlg 2"
         id="g17749">
        <circle
           cx="-135.343"
           cy="181.647"
           r="5"
           id="circle17747" />
      </g>
      <g
         transform="matrix(10.0123,0,0,-9.96698,1737.06,3511.81)"
         font-weight="400"
         stroke-opacity="1"
         fill="none"
         stroke-width="0.5"
         font-size="29.1042"
         font-style="normal"
         stroke="#000000"
         stroke-linejoin="miter"
         stroke-miterlimit="4"
         font-family="MS Shell Dlg 2"
         stroke-linecap="butt"
         id="g17753">
        <circle
           cx="-135.343"
           cy="181.647"
           r="5"
           id="circle17751" />
      </g>
      <g
         transform="matrix(1,0,0,1,155.403,95.7565)"
         font-weight="400"
         stroke-opacity="1"
         fill="none"
         stroke-width="1"
         font-size="29.1042"
         font-style="normal"
         stroke="#000000"
         stroke-linejoin="bevel"
         font-family="MS Shell Dlg 2"
         stroke-linecap="square"
         id="g17757">
        <text
           font-weight="400"
           y="66"
           fill="#000000"
           fill-opacity="1"
           font-size="69"
           font-style="normal"
           x="4"
           stroke="none"
           xml:space="preserve"
           font-family="Arial"
           id="text17755">PEÇAS</text>
      </g>
      <g
         transform="matrix(1,0,0,1,155.403,95.7565)"
         font-weight="400"
         stroke-opacity="1"
         fill="none"
         stroke-width="1"
         font-size="29.1042"
         font-style="normal"
         stroke="#000000"
         stroke-linejoin="bevel"
         font-family="MS Shell Dlg 2"
         stroke-linecap="square"
         id="g17761">
        <text
           font-weight="400"
           y="66"
           fill="#000000"
           fill-opacity="1"
           font-size="29.1042"
           font-style="normal"
           x="238"
           stroke="none"
           xml:space="preserve"
           font-family="MS Shell Dlg 2"
           id="text17759" />
      </g>
    </g>
  </g>
</svg>
